<svg width="90" height="90" viewBox="0 0 90 90" fill="none" xmlns="http://www.w3.org/2000/svg">
<path d="M17.5 11C14.7386 11 12.5 13.2386 12.5 16V21C12.5 23.7614 14.7386 26 17.5 26H20V71C20 76.5228 24.4772 81 30 81H60C65.5228 81 70 76.5228 70 71V26H72.5C75.2614 26 77.5 23.7614 77.5 21V16C77.5 13.2386 75.2614 11 72.5 11H55C55 8.23858 52.7614 6 50 6H40C37.2386 6 35 8.23858 35 11H17.5ZM32.5 31C33.8807 31 35 32.1193 35 33.5V68.5C35 69.8807 33.8807 71 32.5 71C31.1193 71 30 69.8807 30 68.5L30 33.5C30 32.1193 31.1193 31 32.5 31ZM45 31C46.3807 31 47.5 32.1193 47.5 33.5V68.5C47.5 69.8807 46.3807 71 45 71C43.6193 71 42.5 69.8807 42.5 68.5V33.5C42.5 32.1193 43.6193 31 45 31ZM60 33.5V68.5C60 69.8807 58.8807 71 57.5 71C56.1193 71 55 69.8807 55 68.5V33.5C55 32.1193 56.1193 31 57.5 31C58.8807 31 60 32.1193 60 33.5Z" fill="#00356B"/>
<rect x="0.5" y="0.5" width="89" height="89" stroke="#00356B"/>
</svg>
