<svg width="149" height="118" viewBox="0 0 149 118" fill="none" xmlns="http://www.w3.org/2000/svg">
<path d="M8.448 109.384C6.44267 109.384 4.84267 108.669 3.648 107.24C2.45333 105.811 1.856 103.891 1.856 101.48C1.856 99.0693 2.45333 97.1493 3.648 95.72C4.84267 94.2907 6.44267 93.576 8.448 93.576C9.344 93.576 10.2293 93.7253 11.104 94.024C12 94.3227 12.8533 94.76 13.664 95.336V86.28H15.968V109H14.24L13.984 107.4C12.2347 108.723 10.3893 109.384 8.448 109.384ZM8.832 107.208C9.64267 107.208 10.4747 107.059 11.328 106.76C12.1813 106.461 12.96 106.045 13.664 105.512V97.448C12.96 96.9147 12.1813 96.4987 11.328 96.2C10.4747 95.9013 9.64267 95.752 8.832 95.752C7.40267 95.752 6.272 96.264 5.44 97.288C4.62933 98.312 4.224 99.7093 4.224 101.48C4.224 103.251 4.62933 104.648 5.44 105.672C6.272 106.696 7.40267 107.208 8.832 107.208ZM26.6905 109V96.072H20.2905V93.96H28.9945V106.888H35.3945V109H26.6905ZM27.5225 90.312C26.9252 90.312 26.4025 90.0987 25.9545 89.672C25.5278 89.224 25.3145 88.7013 25.3145 88.104C25.3145 87.4853 25.5278 86.9627 25.9545 86.536C26.4025 86.1093 26.9252 85.896 27.5225 85.896C28.1412 85.896 28.6638 86.1093 29.0905 86.536C29.5172 86.9627 29.7305 87.4853 29.7305 88.104C29.7305 88.7013 29.5172 89.224 29.0905 89.672C28.6638 90.0987 28.1412 90.312 27.5225 90.312ZM46.373 109.384C43.749 109.384 41.4023 108.765 39.333 107.528L40.261 105.576C41.1783 106.109 42.1597 106.515 43.205 106.792C44.2503 107.069 45.3383 107.208 46.469 107.208C49.349 107.208 50.789 106.376 50.789 104.712C50.789 104.093 50.597 103.645 50.213 103.368C49.829 103.069 49.157 102.856 48.197 102.728L44.549 102.216C42.9917 101.981 41.8503 101.565 41.125 100.968C40.421 100.349 40.069 99.4427 40.069 98.248C40.069 96.7547 40.613 95.6027 41.701 94.792C42.8103 93.9813 44.357 93.576 46.341 93.576C48.581 93.576 50.693 94.088 52.677 95.112L51.845 97.096C50.1597 96.2 48.3037 95.752 46.277 95.752C43.6957 95.752 42.405 96.5307 42.405 98.088C42.405 98.6853 42.597 99.1227 42.981 99.4C43.365 99.6773 44.037 99.88 44.997 100.008L48.645 100.52C50.2237 100.733 51.365 101.149 52.069 101.768C52.773 102.387 53.125 103.315 53.125 104.552C53.125 106.109 52.5383 107.304 51.365 108.136C50.213 108.968 48.549 109.384 46.373 109.384ZM66.1835 109.384C64.5195 109.384 63.0902 109.064 61.8955 108.424C60.7008 107.784 59.7835 106.877 59.1435 105.704C58.5035 104.509 58.1835 103.101 58.1835 101.48C58.1835 99.8373 58.5035 98.4293 59.1435 97.256C59.7835 96.0827 60.7008 95.176 61.8955 94.536C63.0902 93.896 64.5195 93.576 66.1835 93.576C68.1675 93.576 70.0022 94.0987 71.6875 95.144L70.7915 97.064C70.0662 96.616 69.3195 96.2853 68.5515 96.072C67.7835 95.8587 66.9942 95.752 66.1835 95.752C64.3915 95.752 63.0048 96.2533 62.0235 97.256C61.0422 98.2373 60.5515 99.6453 60.5515 101.48C60.5515 103.315 61.0422 104.733 62.0235 105.736C63.0048 106.717 64.3915 107.208 66.1835 107.208C67.0795 107.208 67.9328 107.08 68.7435 106.824C69.5755 106.568 70.3968 106.173 71.2075 105.64L72.1675 107.496C70.3755 108.755 68.3808 109.384 66.1835 109.384ZM83.53 109.384C82.0153 109.384 80.682 109.053 79.53 108.392C78.378 107.731 77.482 106.813 76.842 105.64C76.2233 104.445 75.914 103.059 75.914 101.48C75.914 99.9013 76.2233 98.5253 76.842 97.352C77.482 96.1573 78.378 95.2293 79.53 94.568C80.682 93.9067 82.0153 93.576 83.53 93.576C85.066 93.576 86.3993 93.9067 87.53 94.568C88.682 95.2293 89.5673 96.1573 90.186 97.352C90.826 98.5253 91.146 99.9013 91.146 101.48C91.146 103.059 90.826 104.445 90.186 105.64C89.5673 106.813 88.682 107.731 87.53 108.392C86.3993 109.053 85.066 109.384 83.53 109.384ZM83.53 107.208C85.1727 107.208 86.4527 106.696 87.37 105.672C88.3087 104.648 88.778 103.251 88.778 101.48C88.778 99.7093 88.3087 98.312 87.37 97.288C86.4527 96.264 85.1727 95.752 83.53 95.752C81.9087 95.752 80.6287 96.264 79.69 97.288C78.7513 98.312 78.282 99.7093 78.282 101.48C78.282 103.251 78.7513 104.648 79.69 105.672C80.6287 106.696 81.9087 107.208 83.53 107.208ZM100.717 109L94.6365 93.96H97.1325L102.157 106.6L107.181 93.96H109.549L103.469 109H100.717ZM121.519 109.384C118.938 109.384 116.9 108.68 115.407 107.272C113.935 105.864 113.199 103.933 113.199 101.48C113.199 99.8587 113.519 98.4613 114.159 97.288C114.799 96.1147 115.695 95.208 116.847 94.568C117.999 93.9067 119.343 93.576 120.879 93.576C122.372 93.576 123.663 93.8853 124.751 94.504C125.839 95.1013 126.671 95.9547 127.247 97.064C127.844 98.152 128.143 99.4533 128.143 100.968C128.143 101.181 128.143 101.395 128.143 101.608C128.143 101.821 128.122 102.045 128.079 102.28H115.599C115.748 103.859 116.335 105.075 117.359 105.928C118.383 106.781 119.791 107.208 121.583 107.208C123.375 107.208 125.071 106.685 126.671 105.64L127.663 107.528C126.703 108.168 125.722 108.637 124.719 108.936C123.716 109.235 122.65 109.384 121.519 109.384ZM115.663 100.232H125.807C125.658 98.824 125.156 97.7253 124.303 96.936C123.45 96.1467 122.298 95.752 120.847 95.752C119.418 95.752 118.244 96.1467 117.327 96.936C116.431 97.7253 115.876 98.824 115.663 100.232ZM133.906 109V93.96H135.762L136.082 96.584C136.956 95.5813 137.927 94.8347 138.994 94.344C140.082 93.832 141.255 93.576 142.514 93.576C143.922 93.576 145.052 93.8747 145.906 94.472L145.042 96.552C144.636 96.2747 144.21 96.0827 143.762 95.976C143.335 95.848 142.855 95.784 142.322 95.784C139.911 95.784 137.874 96.9253 136.21 99.208V109H133.906Z" fill="#00356B"/>
<path d="M74 80.0821C94.7107 80.0821 111.5 63.2927 111.5 42.5821C111.5 25.2648 99.7617 10.6891 83.8078 6.37764C83.9329 5.94001 83.9999 5.47783 83.9999 5C83.9999 2.23858 81.7614 0 78.9999 0H68.9999C66.2385 0 63.9999 2.23858 63.9999 5C63.9999 5.47784 64.067 5.94003 64.1922 6.37767C48.2382 10.6892 36.5 25.2648 36.5 42.5821C36.5 63.2927 53.2893 80.0821 74 80.0821ZM106.5 42.5821C106.5 60.5313 91.9493 75.0821 74 75.0821C56.0507 75.0821 41.5 60.5313 41.5 42.5821C41.5 24.6328 56.0507 10.0821 74 10.0821C91.9493 10.0821 106.5 24.6328 106.5 42.5821Z" fill="#00356B"/>
<path d="M68.6969 37.1966L93.4457 23.0545L79.3035 47.8032L54.5548 61.9454L68.6969 37.1966Z" fill="#00356B"/>
</svg>
