<svg width="90" height="90" viewBox="0 0 90 90" fill="none" xmlns="http://www.w3.org/2000/svg">
<path d="M73.4915 8.97299L74.2323 8.23223C76.5893 5.87521 80.4108 5.87521 82.7678 8.23223C85.1248 10.5893 85.1248 14.4107 82.7678 16.7678L82.0271 17.5085C84.6577 20.4535 84.5594 24.9762 81.7323 27.8033L30.2678 79.2678C29.9474 79.5882 29.546 79.8155 29.1064 79.9254L9.10639 84.9254C8.25445 85.1383 7.35324 84.8887 6.73229 84.2678C6.11134 83.6468 5.86171 82.7456 6.0747 81.8937L11.0747 61.8937C11.1846 61.4541 11.4119 61.0526 11.7323 60.7322L59.9386 12.5259C58.963 11.8379 57.6052 11.9304 56.7323 12.8033L40.2678 29.2678C39.2915 30.2441 37.7086 30.2441 36.7323 29.2678C35.756 28.2915 35.756 26.7085 36.7323 25.7322L53.1968 9.26776C56.0266 6.4379 60.5553 6.34218 63.5001 8.98062C66.3389 6.43709 70.6497 6.43455 73.4915 8.97299Z" fill="#00356B"/>
<rect x="0.5" y="0.5" width="89" height="89" stroke="#00356B"/>
</svg>
