<svg width="132" height="119" viewBox="0 0 132 119" fill="none" xmlns="http://www.w3.org/2000/svg">
<path d="M31.723 104V81.28H34.027V90.336C35.6483 89.1627 37.4403 88.576 39.403 88.576C41.1737 88.576 42.507 89.0453 43.403 89.984C44.3203 90.9227 44.779 92.3413 44.779 94.24V104H42.475V94.592C42.475 93.248 42.1977 92.2773 41.643 91.68C41.0883 91.0613 40.2137 90.752 39.019 90.752C38.1657 90.752 37.3017 90.9013 36.427 91.2C35.5737 91.4773 34.7737 91.8933 34.027 92.448V104H31.723ZM56.7175 104.384C55.2028 104.384 53.8695 104.053 52.7175 103.392C51.5655 102.731 50.6695 101.813 50.0295 100.64C49.4108 99.4453 49.1015 98.0587 49.1015 96.48C49.1015 94.9013 49.4108 93.5253 50.0295 92.352C50.6695 91.1573 51.5655 90.2293 52.7175 89.568C53.8695 88.9067 55.2028 88.576 56.7175 88.576C58.2535 88.576 59.5868 88.9067 60.7175 89.568C61.8695 90.2293 62.7548 91.1573 63.3735 92.352C64.0135 93.5253 64.3335 94.9013 64.3335 96.48C64.3335 98.0587 64.0135 99.4453 63.3735 100.64C62.7548 101.813 61.8695 102.731 60.7175 103.392C59.5868 104.053 58.2535 104.384 56.7175 104.384ZM56.7175 102.208C58.3602 102.208 59.6402 101.696 60.5575 100.672C61.4962 99.648 61.9655 98.2507 61.9655 96.48C61.9655 94.7093 61.4962 93.312 60.5575 92.288C59.6402 91.264 58.3602 90.752 56.7175 90.752C55.0962 90.752 53.8162 91.264 52.8775 92.288C51.9388 93.312 51.4695 94.7093 51.4695 96.48C51.4695 98.2507 51.9388 99.648 52.8775 100.672C53.8162 101.696 55.0962 102.208 56.7175 102.208ZM67.728 104V88.96H69.296L69.52 90.208C70.6507 89.12 71.8667 88.576 73.168 88.576C74.5333 88.576 75.4827 89.12 76.016 90.208C77.1467 89.12 78.3627 88.576 79.664 88.576C80.6667 88.576 81.456 88.896 82.032 89.536C82.6293 90.1547 82.928 91.0187 82.928 92.128V104H80.72V92.384C80.72 91.2107 80.1867 90.624 79.12 90.624C78.1387 90.624 77.2427 91.0293 76.432 91.84V104H74.224V92.384C74.224 91.2107 73.6907 90.624 72.624 90.624C71.6427 90.624 70.7467 91.0293 69.936 91.84V104H67.728ZM94.7065 104.384C92.1252 104.384 90.0878 103.68 88.5945 102.272C87.1225 100.864 86.3865 98.9333 86.3865 96.48C86.3865 94.8587 86.7065 93.4613 87.3465 92.288C87.9865 91.1147 88.8825 90.208 90.0345 89.568C91.1865 88.9067 92.5305 88.576 94.0665 88.576C95.5598 88.576 96.8505 88.8853 97.9385 89.504C99.0265 90.1013 99.8585 90.9547 100.435 92.064C101.032 93.152 101.331 94.4533 101.331 95.968C101.331 96.1813 101.331 96.3947 101.331 96.608C101.331 96.8213 101.309 97.0453 101.267 97.28H88.7865C88.9358 98.8587 89.5225 100.075 90.5465 100.928C91.5705 101.781 92.9785 102.208 94.7705 102.208C96.5625 102.208 98.2585 101.685 99.8585 100.64L100.851 102.528C99.8905 103.168 98.9092 103.637 97.9065 103.936C96.9038 104.235 95.8372 104.384 94.7065 104.384ZM88.8505 95.232H98.9945C98.8452 93.824 98.3438 92.7253 97.4905 91.936C96.6372 91.1467 95.4852 90.752 94.0345 90.752C92.6052 90.752 91.4318 91.1467 90.5145 91.936C89.6185 92.7253 89.0638 93.824 88.8505 95.232Z" fill="#00356B"/>
<path d="M58.5 72.5V54.9733C58.5 53.75 59.75 52.5 61 52.5H71C72.25 52.5 73.5 53.75 73.5 55V72.5C73.5 73.8807 74.6193 75 76 75H96C97.3807 75 98.5 73.8807 98.5 72.5V37.5C98.5 36.837 98.2366 36.2011 97.7678 35.7322L91 28.9645V12.5C91 11.1193 89.8807 10 88.5 10H83.5C82.1193 10 81 11.1193 81 12.5V18.9645L67.7678 5.73223C66.7915 4.75592 65.2085 4.75592 64.2322 5.73223L34.2322 35.7322C33.7634 36.2011 33.5 36.837 33.5 37.5V72.5C33.5 73.8807 34.6193 75 36 75H56C57.3807 75 58.5 73.8807 58.5 72.5Z" fill="#00356B"/>
</svg>
