<svg width="132" height="114" viewBox="0 0 132 114" fill="none" xmlns="http://www.w3.org/2000/svg">
<path fill-rule="evenodd" clip-rule="evenodd" d="M83 62.5C83 63.8807 81.8807 65 80.5 65L40.5 65C39.1193 65 38 63.8807 38 62.5L38 17.5C38 16.1193 39.1193 15 40.5 15L80.5 15C81.8807 15 83 16.1193 83 17.5L83 27.5C83 28.8807 84.1193 30 85.5 30C86.8807 30 88 28.8807 88 27.5L88 17.5C88 13.3579 84.6421 10 80.5 10L40.5 10C36.3579 10 33 13.3579 33 17.5L33 62.5C33 66.6421 36.3579 70 40.5 70L80.5 70C84.6421 70 88 66.6421 88 62.5L88 52.5C88 51.1193 86.8807 50 85.5 50C84.1193 50 83 51.1193 83 52.5L83 62.5Z" fill="#00356B"/>
<path fill-rule="evenodd" clip-rule="evenodd" d="M112.268 41.7678C113.244 40.7915 113.244 39.2085 112.268 38.2322L97.2678 23.2322C96.2915 22.2559 94.7085 22.2559 93.7322 23.2322C92.7559 24.2085 92.7559 25.7915 93.7322 26.7678L104.464 37.5L60.5 37.5C59.1193 37.5 58 38.6193 58 40C58 41.3807 59.1193 42.5 60.5 42.5L104.464 42.5L93.7322 53.2322C92.7559 54.2085 92.7559 55.7915 93.7322 56.7678C94.7085 57.7441 96.2915 57.7441 97.2678 56.7678L112.268 41.7678Z" fill="#00356B"/>
<path d="M23.3045 99.384C19.5712 99.384 17.7045 97.496 17.7045 93.72V78.392H11.3045V76.28H20.0085V93.368C20.0085 94.712 20.2858 95.6933 20.8405 96.312C21.3952 96.9093 22.2698 97.208 23.4645 97.208C24.8085 97.208 26.0672 96.888 27.2405 96.248L27.8805 98.296C26.4938 99.0213 24.9685 99.384 23.3045 99.384ZM38.155 99.384C36.6403 99.384 35.307 99.0533 34.155 98.392C33.003 97.7307 32.107 96.8133 31.467 95.64C30.8483 94.4453 30.539 93.0587 30.539 91.48C30.539 89.9013 30.8483 88.5253 31.467 87.352C32.107 86.1573 33.003 85.2293 34.155 84.568C35.307 83.9067 36.6403 83.576 38.155 83.576C39.691 83.576 41.0243 83.9067 42.155 84.568C43.307 85.2293 44.1923 86.1573 44.811 87.352C45.451 88.5253 45.771 89.9013 45.771 91.48C45.771 93.0587 45.451 94.4453 44.811 95.64C44.1923 96.8133 43.307 97.7307 42.155 98.392C41.0243 99.0533 39.691 99.384 38.155 99.384ZM38.155 97.208C39.7977 97.208 41.0777 96.696 41.995 95.672C42.9337 94.648 43.403 93.2507 43.403 91.48C43.403 89.7093 42.9337 88.312 41.995 87.288C41.0777 86.264 39.7977 85.752 38.155 85.752C36.5337 85.752 35.2537 86.264 34.315 87.288C33.3763 88.312 32.907 89.7093 32.907 91.48C32.907 93.2507 33.3763 94.648 34.315 95.672C35.2537 96.696 36.5337 97.208 38.155 97.208ZM56.2375 106.104C55.1708 106.104 54.1255 105.976 53.1015 105.72C52.0775 105.485 51.0962 105.123 50.1575 104.632L50.9895 102.616C51.7788 103.043 52.6002 103.363 53.4535 103.576C54.3282 103.811 55.2348 103.928 56.1735 103.928C57.8375 103.928 59.0748 103.555 59.8855 102.808C60.6962 102.061 61.1015 100.941 61.1015 99.448V97.304C60.2908 97.88 59.4375 98.3173 58.5415 98.616C57.6668 98.9147 56.7815 99.064 55.8855 99.064C54.5415 99.064 53.3788 98.744 52.3975 98.104C51.4162 97.4427 50.6482 96.536 50.0935 95.384C49.5602 94.2107 49.2935 92.856 49.2935 91.32C49.2935 89.784 49.5602 88.44 50.0935 87.288C50.6482 86.1147 51.4162 85.208 52.3975 84.568C53.3788 83.9067 54.5415 83.576 55.8855 83.576C57.8268 83.576 59.6722 84.2373 61.4215 85.56L61.6775 83.96H63.4055V99.736C63.4055 101.741 62.8082 103.299 61.6135 104.408C60.4188 105.539 58.6268 106.104 56.2375 106.104ZM56.2695 96.888C57.0802 96.888 57.9122 96.7387 58.7655 96.44C59.6188 96.1413 60.3975 95.7253 61.1015 95.192V87.448C60.3975 86.9147 59.6188 86.4987 58.7655 86.2C57.9122 85.9013 57.0802 85.752 56.2695 85.752C54.8402 85.752 53.7095 86.264 52.8775 87.288C52.0668 88.312 51.6615 89.656 51.6615 91.32C51.6615 92.984 52.0668 94.328 52.8775 95.352C53.7095 96.376 54.8402 96.888 56.2695 96.888ZM75.28 99.384C73.7653 99.384 72.432 99.0533 71.28 98.392C70.128 97.7307 69.232 96.8133 68.592 95.64C67.9733 94.4453 67.664 93.0587 67.664 91.48C67.664 89.9013 67.9733 88.5253 68.592 87.352C69.232 86.1573 70.128 85.2293 71.28 84.568C72.432 83.9067 73.7653 83.576 75.28 83.576C76.816 83.576 78.1493 83.9067 79.28 84.568C80.432 85.2293 81.3173 86.1573 81.936 87.352C82.576 88.5253 82.896 89.9013 82.896 91.48C82.896 93.0587 82.576 94.4453 81.936 95.64C81.3173 96.8133 80.432 97.7307 79.28 98.392C78.1493 99.0533 76.816 99.384 75.28 99.384ZM75.28 97.208C76.9227 97.208 78.2027 96.696 79.12 95.672C80.0587 94.648 80.528 93.2507 80.528 91.48C80.528 89.7093 80.0587 88.312 79.12 87.288C78.2027 86.264 76.9227 85.752 75.28 85.752C73.6587 85.752 72.3787 86.264 71.44 87.288C70.5013 88.312 70.032 89.7093 70.032 91.48C70.032 93.2507 70.5013 94.648 71.44 95.672C72.3787 96.696 73.6587 97.208 75.28 97.208ZM92.5945 99.384C90.8452 99.384 89.5118 98.9147 88.5945 97.976C87.6772 97.016 87.2185 95.5973 87.2185 93.72V83.96H89.5225V93.368C89.5225 94.712 89.7998 95.6933 90.3545 96.312C90.9092 96.9093 91.7838 97.208 92.9785 97.208C93.8532 97.208 94.7172 97.0587 95.5705 96.76C96.4452 96.4613 97.2452 96.0453 97.9705 95.512V83.96H100.275V99H98.5465L98.2905 97.4C97.4372 98.0613 96.5305 98.5627 95.5705 98.904C94.6318 99.224 93.6398 99.384 92.5945 99.384ZM115.349 99.384C111.616 99.384 109.749 97.496 109.749 93.72V86.072H104.789V83.96H109.749V79.096L112.053 77.816V83.96H118.453V86.072H112.053V93.368C112.053 94.712 112.33 95.6933 112.885 96.312C113.44 96.9093 114.314 97.208 115.509 97.208C116.853 97.208 118.112 96.888 119.285 96.248L119.925 98.296C118.538 99.0213 117.013 99.384 115.349 99.384Z" fill="#00356B"/>
</svg>
