<svg width="128" height="161" viewBox="0 0 128 161" fill="none" xmlns="http://www.w3.org/2000/svg">
<path d="M28.603 109V93.96H30.171L30.395 95.208C31.5257 94.12 32.7417 93.576 34.043 93.576C35.4083 93.576 36.3577 94.12 36.891 95.208C38.0217 94.12 39.2377 93.576 40.539 93.576C41.5417 93.576 42.331 93.896 42.907 94.536C43.5043 95.1547 43.803 96.0187 43.803 97.128V109H41.595V97.384C41.595 96.2107 41.0617 95.624 39.995 95.624C39.0137 95.624 38.1177 96.0293 37.307 96.84V109H35.099V97.384C35.099 96.2107 34.5657 95.624 33.499 95.624C32.5177 95.624 31.6217 96.0293 30.811 96.84V109H28.603ZM53.3095 109.384C51.4748 109.384 50.0562 108.968 49.0535 108.136C48.0508 107.283 47.5495 106.109 47.5495 104.616C47.5495 103.187 48.0188 102.099 48.9575 101.352C49.8962 100.605 51.3042 100.232 53.1815 100.232H58.9415V99.592C58.9415 98.2053 58.6108 97.224 57.9495 96.648C57.3095 96.0507 56.2108 95.752 54.6535 95.752C52.6482 95.752 50.8348 96.1893 49.2135 97.064L48.4775 95.048C50.3122 94.0667 52.4028 93.576 54.7495 93.576C57.0108 93.576 58.6535 94.0347 59.6775 94.952C60.7228 95.848 61.2455 97.2773 61.2455 99.24V109H59.5175L59.2295 107.4C58.3548 108.061 57.4268 108.563 56.4455 108.904C55.4642 109.224 54.4188 109.384 53.3095 109.384ZM53.6295 107.208C55.6348 107.208 57.4055 106.632 58.9415 105.48V102.28H53.1175C52.0295 102.28 51.2188 102.483 50.6855 102.888C50.1735 103.272 49.9175 103.848 49.9175 104.616C49.9175 105.469 50.2268 106.12 50.8455 106.568C51.4642 106.995 52.3922 107.208 53.6295 107.208ZM67.104 109V86.28H69.408V101.64L77.984 93.96H81.12L74.528 99.816L81.28 109H78.4L72.768 101.352L69.408 104.36V109H67.104ZM92.7065 109.384C90.1252 109.384 88.0878 108.68 86.5945 107.272C85.1225 105.864 84.3865 103.933 84.3865 101.48C84.3865 99.8587 84.7065 98.4613 85.3465 97.288C85.9865 96.1147 86.8825 95.208 88.0345 94.568C89.1865 93.9067 90.5305 93.576 92.0665 93.576C93.5598 93.576 94.8505 93.8853 95.9385 94.504C97.0265 95.1013 97.8585 95.9547 98.4345 97.064C99.0318 98.152 99.3305 99.4533 99.3305 100.968C99.3305 101.181 99.3305 101.395 99.3305 101.608C99.3305 101.821 99.3092 102.045 99.2665 102.28H86.7865C86.9358 103.859 87.5225 105.075 88.5465 105.928C89.5705 106.781 90.9785 107.208 92.7705 107.208C94.5625 107.208 96.2585 106.685 97.8585 105.64L98.8505 107.528C97.8905 108.168 96.9092 108.637 95.9065 108.936C94.9038 109.235 93.8372 109.384 92.7065 109.384ZM86.8505 100.232H96.9945C96.8452 98.824 96.3438 97.7253 95.4905 96.936C94.6372 96.1467 93.4852 95.752 92.0345 95.752C90.6052 95.752 89.4318 96.1467 88.5145 96.936C87.6185 97.7253 87.0638 98.824 86.8505 100.232ZM29.467 153.72V131.96H31.195L31.451 133.56C33.2003 132.237 35.0457 131.576 36.987 131.576C39.0137 131.576 40.6137 132.291 41.787 133.72C42.9817 135.149 43.579 137.069 43.579 139.48C43.579 141.891 42.9817 143.811 41.787 145.24C40.6137 146.669 39.0137 147.384 36.987 147.384C36.091 147.384 35.195 147.235 34.299 146.936C33.4243 146.637 32.5817 146.2 31.771 145.624V153.72H29.467ZM36.603 145.208C38.0537 145.208 39.1843 144.696 39.995 143.672C40.8057 142.648 41.211 141.251 41.211 139.48C41.211 137.709 40.8057 136.312 39.995 135.288C39.1843 134.264 38.0537 133.752 36.603 133.752C35.8137 133.752 34.9817 133.901 34.107 134.2C33.2537 134.499 32.475 134.915 31.771 135.448V143.512C32.475 144.045 33.2537 144.461 34.107 144.76C34.9817 145.059 35.8137 145.208 36.603 145.208ZM54.7175 147.384C53.2028 147.384 51.8695 147.053 50.7175 146.392C49.5655 145.731 48.6695 144.813 48.0295 143.64C47.4108 142.445 47.1015 141.059 47.1015 139.48C47.1015 137.901 47.4108 136.525 48.0295 135.352C48.6695 134.157 49.5655 133.229 50.7175 132.568C51.8695 131.907 53.2028 131.576 54.7175 131.576C56.2535 131.576 57.5868 131.907 58.7175 132.568C59.8695 133.229 60.7548 134.157 61.3735 135.352C62.0135 136.525 62.3335 137.901 62.3335 139.48C62.3335 141.059 62.0135 142.445 61.3735 143.64C60.7548 144.813 59.8695 145.731 58.7175 146.392C57.5868 147.053 56.2535 147.384 54.7175 147.384ZM54.7175 145.208C56.3602 145.208 57.6402 144.696 58.5575 143.672C59.4962 142.648 59.9655 141.251 59.9655 139.48C59.9655 137.709 59.4962 136.312 58.5575 135.288C57.6402 134.264 56.3602 133.752 54.7175 133.752C53.0962 133.752 51.8162 134.264 50.8775 135.288C49.9388 136.312 49.4695 137.709 49.4695 139.48C49.4695 141.251 49.9388 142.648 50.8775 143.672C51.8162 144.696 53.0962 145.208 54.7175 145.208ZM73.248 147.384C70.624 147.384 68.2773 146.765 66.208 145.528L67.136 143.576C68.0533 144.109 69.0347 144.515 70.08 144.792C71.1253 145.069 72.2133 145.208 73.344 145.208C76.224 145.208 77.664 144.376 77.664 142.712C77.664 142.093 77.472 141.645 77.088 141.368C76.704 141.069 76.032 140.856 75.072 140.728L71.424 140.216C69.8667 139.981 68.7253 139.565 68 138.968C67.296 138.349 66.944 137.443 66.944 136.248C66.944 134.755 67.488 133.603 68.576 132.792C69.6853 131.981 71.232 131.576 73.216 131.576C75.456 131.576 77.568 132.088 79.552 133.112L78.72 135.096C77.0347 134.2 75.1787 133.752 73.152 133.752C70.5707 133.752 69.28 134.531 69.28 136.088C69.28 136.685 69.472 137.123 69.856 137.4C70.24 137.677 70.912 137.88 71.872 138.008L75.52 138.52C77.0987 138.733 78.24 139.149 78.944 139.768C79.648 140.387 80 141.315 80 142.552C80 144.109 79.4133 145.304 78.24 146.136C77.088 146.968 75.424 147.384 73.248 147.384ZM94.7865 147.384C91.0532 147.384 89.1865 145.496 89.1865 141.72V134.072H84.2265V131.96H89.1865V127.096L91.4905 125.816V131.96H97.8905V134.072H91.4905V141.368C91.4905 142.712 91.7678 143.693 92.3225 144.312C92.8772 144.909 93.7518 145.208 94.9465 145.208C96.2905 145.208 97.5492 144.888 98.7225 144.248L99.3625 146.296C97.9758 147.021 96.4505 147.384 94.7865 147.384Z" fill="#00356B"/>
<path d="M64 32.5C65.3807 32.5 66.5 33.6193 66.5 35V42.5H74C75.3807 42.5 76.5 43.6193 76.5 45C76.5 46.3807 75.3807 47.5 74 47.5H66.5V55C66.5 56.3807 65.3807 57.5 64 57.5C62.6193 57.5 61.5 56.3807 61.5 55V47.5H54C52.6193 47.5 51.5 46.3807 51.5 45C51.5 43.6193 52.6193 42.5 54 42.5H61.5V35C61.5 33.6193 62.6193 32.5 64 32.5Z" fill="#00356B"/>
<path d="M94 22.5V70C94 75.5229 89.5228 80 84 80H44C38.4772 80 34 75.5229 34 70V10C34 4.47715 38.4772 0 44 0H71.5L94 22.5ZM79 22.5C74.8579 22.5 71.5 19.1421 71.5 15V5H44C41.2386 5 39 7.23857 39 10V70C39 72.7614 41.2386 75 44 75H84C86.7614 75 89 72.7614 89 70V22.5H79Z" fill="#00356B"/>
</svg>
