<svg width="80" height="80" viewBox="0 0 80 80" fill="none" xmlns="http://www.w3.org/2000/svg">
<path d="M55.9547 60.9754C66.0291 59.7785 74.8009 53.6025 75.9034 47.9592C77.6405 39.0695 77.4971 26.2653 77.4971 26.2653C77.4971 8.91083 66.0694 3.82398 66.0694 3.82398C60.3074 1.1909 50.4132 0.0836172 40.1339 0H39.8814C29.602 0.0836172 19.7143 1.1909 13.9519 3.82398C13.9519 3.82398 2.52377 8.91083 2.52377 26.2653C2.52377 27.3174 2.51831 28.424 2.51262 29.576C2.49682 32.7753 2.47929 36.3248 2.57229 40.0298C2.98729 57.0015 5.69954 73.7279 21.4705 77.8812C28.7421 79.7962 34.9854 80.197 40.0135 79.9221C49.1318 79.4191 54.2505 76.6843 54.2505 76.6843L53.9498 70.1018C53.9498 70.1018 47.4337 72.1461 40.1157 71.897C32.8653 71.6496 25.2111 71.119 24.0385 62.262C23.9302 61.4841 23.876 60.6522 23.876 59.7785C23.876 59.7785 30.9935 61.5095 40.0135 61.9207C45.5289 62.1724 50.7013 61.5991 55.9547 60.9754ZM64.0172 48.6251H55.6501V28.2294C55.6501 23.93 53.8319 21.7478 50.1952 21.7478C46.1743 21.7478 44.1591 24.3365 44.1591 29.4552V40.619H35.8413V29.4552C35.8413 24.3365 33.8256 21.7478 29.8047 21.7478C26.168 21.7478 24.3499 23.93 24.3499 28.2294V48.6251H15.9827V27.6117C15.9827 23.3171 17.0817 19.9043 19.2893 17.3794C21.5657 14.8545 24.547 13.5602 28.2478 13.5602C32.5295 13.5602 35.772 15.1976 37.9158 18.4729L40 21.9491L42.0845 18.4729C44.228 15.1976 47.4704 13.5602 51.7526 13.5602C55.4529 13.5602 58.4342 14.8545 60.7111 17.3794C62.9182 19.9043 64.0172 23.3171 64.0172 27.6117V48.6251Z" fill="#00356B"/>
</svg>
