<svg width="80" height="80" viewBox="0 0 80 80" fill="none" xmlns="http://www.w3.org/2000/svg">
<path d="M30.8355 39.9999C28.5443 39.9999 26.6828 41.8615 26.6828 44.1527C26.6828 46.4438 28.5443 48.3531 30.8355 48.3054C33.1267 48.3054 34.9883 46.4438 34.9883 44.1527C34.9883 41.8615 33.1267 39.9999 30.8355 39.9999Z" fill="#00356B"/>
<path d="M40.0479 58.2338C41.6231 58.2338 47.0646 58.0429 49.9286 55.1789C50.3105 54.7493 50.3105 54.0811 49.9286 53.6515C49.499 53.2219 48.8307 53.2219 48.4012 53.6515C46.635 55.4653 42.7687 56.0858 40.0479 56.0858C37.3272 56.0858 33.5086 55.4653 31.6947 53.6515C31.2651 53.2219 30.5969 53.2219 30.1673 53.6515C29.7377 54.0811 29.7377 54.7493 30.1673 55.1789C32.9835 57.9951 38.425 58.2338 40.0479 58.2338Z" fill="#00356B"/>
<path d="M45.0121 44.2004C45.0121 46.4916 46.8737 48.3531 49.1649 48.3531C51.456 48.3531 53.3176 46.4438 53.3176 44.2004C53.3176 41.9092 51.456 40.0476 49.1649 40.0476C46.8737 40.0476 45.0121 41.9092 45.0121 44.2004Z" fill="#00356B"/>
<path d="M80 40C80 62.0914 62.0914 80 40 80C17.9086 80 0 62.0914 0 40C0 17.9086 17.9086 0 40 0C62.0914 0 80 17.9086 80 40ZM60.8594 34.1765C59.2842 34.1765 57.8522 34.797 56.8021 35.7994C52.7926 32.9355 47.3033 31.0739 41.1935 30.8352L43.8665 18.3293L52.5539 20.1908C52.6494 22.3865 54.4632 24.1527 56.7066 24.1527C58.9978 24.1527 60.8594 22.2911 60.8594 19.9999C60.8594 17.7087 58.9978 15.8472 56.7066 15.8472C55.0837 15.8472 53.6517 16.8018 52.9835 18.1861L43.2938 16.1336C43.0074 16.0858 42.721 16.1336 42.53 16.2768C42.2914 16.42 42.1482 16.6586 42.1004 16.945L39.141 30.883C32.9358 31.0739 27.351 32.9355 23.2938 35.8472C22.2436 34.8448 20.8117 34.2243 19.2365 34.2243C15.9907 34.2243 13.4131 36.8496 13.4131 40.0476C13.4131 42.4343 14.8451 44.4391 16.8498 45.346C16.7544 45.9188 16.7066 46.4916 16.7066 47.1121C16.7066 56.0858 27.1601 63.3889 40.0479 63.3889C52.9358 63.3889 63.3892 56.1336 63.3892 47.1121C63.3892 46.5393 63.3415 45.9188 63.246 45.346C65.2508 44.4391 66.6828 42.3865 66.6828 39.9999C66.6828 36.7541 64.0575 34.1765 60.8594 34.1765Z" fill="#00356B"/>
</svg>
