<svg width="81" height="80" viewBox="0 0 81 80" fill="none" xmlns="http://www.w3.org/2000/svg">
<path d="M40.1065 59.5016L17.2655 43.0944C14.9114 41.7071 14.9114 38.2929 17.2655 36.9056L40.1065 20.4984C42.4702 19.1054 45.4999 20.7903 45.4999 23.5929V30C52.9999 30 75.4999 30 80.4999 70C67.9999 47.5 45.4999 50 45.4999 50V56.4071C45.4999 59.2097 42.4702 60.8946 40.1065 59.5016Z" fill="#00356B"/>
<path d="M26.1591 21.4664C26.9777 22.5783 26.7399 24.1432 25.6281 24.9618L5.57126 39.7282C5.50272 39.7787 5.43166 39.8256 5.35834 39.8688C4.88055 40.1504 4.88055 40.8496 5.35834 41.1312C5.43166 41.1744 5.50272 41.2213 5.57126 41.2718L25.6281 56.0382C26.7399 56.8567 26.9777 58.4217 26.1591 59.5336C25.3405 60.6455 23.7755 60.8832 22.6637 60.0646L2.6961 45.3639C-0.89871 43.1281 -0.8987 37.8718 2.69613 35.636L22.6637 20.9354C23.7755 20.1168 25.3405 20.3545 26.1591 21.4664Z" fill="#00356B"/>
</svg>
