<svg width="149" height="118" viewBox="0 0 149 118" fill="none" xmlns="http://www.w3.org/2000/svg">
<path d="M81.0233 5.25193C78.9593 -1.75064 69.0407 -1.75064 66.9767 5.25193L66.4761 6.95015C65.1573 11.4245 60.0468 13.5414 55.9504 11.3101L54.3956 10.4632C47.9846 6.97108 40.9711 13.9846 44.4632 20.3957L45.3101 21.9504C47.5414 26.0468 45.4245 31.1573 40.9502 32.4762L39.2519 32.9767C32.2494 35.0407 32.2494 44.9593 39.2519 47.0233L40.9502 47.5239C45.4245 48.8427 47.5414 53.9532 45.3101 58.0496L44.4632 59.6044C40.9711 66.0154 47.9846 73.0289 54.3956 69.5368L55.9504 68.6899C60.0468 66.4586 65.1573 68.5755 66.4761 73.0498L66.9767 74.7481C69.0407 81.7506 78.9593 81.7506 81.0233 74.7481L81.5238 73.0498C82.8427 68.5755 87.9532 66.4586 92.0496 68.6899L93.6044 69.5368C100.015 73.0289 107.029 66.0154 103.537 59.6044L102.69 58.0496C100.459 53.9532 102.576 48.8427 107.05 47.5239L108.748 47.0233C115.751 44.9593 115.751 35.0407 108.748 32.9767L107.05 32.4762C102.576 31.1573 100.459 26.0468 102.69 21.9504L103.537 20.3956C107.029 13.9846 100.015 6.97109 93.6043 10.4632L92.0496 11.3101C87.9532 13.5414 82.8427 11.4245 81.5238 6.95015L81.0233 5.25193ZM74 54.6441C65.9123 54.6441 59.3559 48.0877 59.3559 40C59.3559 31.9123 65.9123 25.3559 74 25.3559C82.0877 25.3559 88.6441 31.9123 88.6441 40C88.6441 48.0877 82.0877 54.6441 74 54.6441Z" fill="#00356B"/>
<path d="M9.498 109.384C6.874 109.384 4.52733 108.765 2.458 107.528L3.386 105.576C4.30333 106.109 5.28467 106.515 6.33 106.792C7.37533 107.069 8.46333 107.208 9.594 107.208C12.474 107.208 13.914 106.376 13.914 104.712C13.914 104.093 13.722 103.645 13.338 103.368C12.954 103.069 12.282 102.856 11.322 102.728L7.674 102.216C6.11667 101.981 4.97533 101.565 4.25 100.968C3.546 100.349 3.194 99.4427 3.194 98.248C3.194 96.7547 3.738 95.6027 4.826 94.792C5.93533 93.9813 7.482 93.576 9.466 93.576C11.706 93.576 13.818 94.088 15.802 95.112L14.97 97.096C13.2847 96.2 11.4287 95.752 9.402 95.752C6.82067 95.752 5.53 96.5307 5.53 98.088C5.53 98.6853 5.722 99.1227 6.106 99.4C6.49 99.6773 7.162 99.88 8.122 100.008L11.77 100.52C13.3487 100.733 14.49 101.149 15.194 101.768C15.898 102.387 16.25 103.315 16.25 104.552C16.25 106.109 15.6633 107.304 14.49 108.136C13.338 108.968 11.674 109.384 9.498 109.384ZM28.9565 109.384C26.3752 109.384 24.3378 108.68 22.8445 107.272C21.3725 105.864 20.6365 103.933 20.6365 101.48C20.6365 99.8587 20.9565 98.4613 21.5965 97.288C22.2365 96.1147 23.1325 95.208 24.2845 94.568C25.4365 93.9067 26.7805 93.576 28.3165 93.576C29.8098 93.576 31.1005 93.8853 32.1885 94.504C33.2765 95.1013 34.1085 95.9547 34.6845 97.064C35.2818 98.152 35.5805 99.4533 35.5805 100.968C35.5805 101.181 35.5805 101.395 35.5805 101.608C35.5805 101.821 35.5592 102.045 35.5165 102.28H23.0365C23.1858 103.859 23.7725 105.075 24.7965 105.928C25.8205 106.781 27.2285 107.208 29.0205 107.208C30.8125 107.208 32.5085 106.685 34.1085 105.64L35.1005 107.528C34.1405 108.168 33.1592 108.637 32.1565 108.936C31.1538 109.235 30.0872 109.384 28.9565 109.384ZM23.1005 100.232H33.2445C33.0952 98.824 32.5938 97.7253 31.7405 96.936C30.8872 96.1467 29.7352 95.752 28.2845 95.752C26.8552 95.752 25.6818 96.1467 24.7645 96.936C23.8685 97.7253 23.3138 98.824 23.1005 100.232ZM49.599 109.384C45.8657 109.384 43.999 107.496 43.999 103.72V96.072H39.039V93.96H43.999V89.096L46.303 87.816V93.96H52.703V96.072H46.303V103.368C46.303 104.712 46.5803 105.693 47.135 106.312C47.6897 106.909 48.5643 107.208 49.759 107.208C51.103 107.208 52.3617 106.888 53.535 106.248L54.175 108.296C52.7883 109.021 51.263 109.384 49.599 109.384ZM68.1615 109.384C64.4282 109.384 62.5615 107.496 62.5615 103.72V96.072H57.6015V93.96H62.5615V89.096L64.8655 87.816V93.96H71.2655V96.072H64.8655V103.368C64.8655 104.712 65.1428 105.693 65.6975 106.312C66.2522 106.909 67.1268 107.208 68.3215 107.208C69.6655 107.208 70.9242 106.888 72.0975 106.248L72.7375 108.296C71.3508 109.021 69.8255 109.384 68.1615 109.384ZM82.628 109V96.072H76.228V93.96H84.932V106.888H91.332V109H82.628ZM83.46 90.312C82.8627 90.312 82.34 90.0987 81.892 89.672C81.4653 89.224 81.252 88.7013 81.252 88.104C81.252 87.4853 81.4653 86.9627 81.892 86.536C82.34 86.1093 82.8627 85.896 83.46 85.896C84.0787 85.896 84.6013 86.1093 85.028 86.536C85.4547 86.9627 85.668 87.4853 85.668 88.104C85.668 88.7013 85.4547 89.224 85.028 89.672C84.6013 90.0987 84.0787 90.312 83.46 90.312ZM95.9105 109V93.96H97.6385L97.8945 95.56C98.7692 94.8987 99.6758 94.408 100.615 94.088C101.553 93.7467 102.545 93.576 103.591 93.576C105.361 93.576 106.695 94.0453 107.591 94.984C108.508 95.9227 108.967 97.3413 108.967 99.24V109H106.663V99.592C106.663 98.248 106.385 97.2773 105.831 96.68C105.276 96.0613 104.401 95.752 103.207 95.752C102.353 95.752 101.489 95.9013 100.615 96.2C99.7612 96.4773 98.9612 96.8933 98.2145 97.448V109H95.9105ZM120.425 116.104C119.358 116.104 118.313 115.976 117.289 115.72C116.265 115.485 115.284 115.123 114.345 114.632L115.177 112.616C115.966 113.043 116.788 113.363 117.641 113.576C118.516 113.811 119.422 113.928 120.361 113.928C122.025 113.928 123.262 113.555 124.073 112.808C124.884 112.061 125.289 110.941 125.289 109.448V107.304C124.478 107.88 123.625 108.317 122.729 108.616C121.854 108.915 120.969 109.064 120.073 109.064C118.729 109.064 117.566 108.744 116.585 108.104C115.604 107.443 114.836 106.536 114.281 105.384C113.748 104.211 113.481 102.856 113.481 101.32C113.481 99.784 113.748 98.44 114.281 97.288C114.836 96.1147 115.604 95.208 116.585 94.568C117.566 93.9067 118.729 93.576 120.073 93.576C122.014 93.576 123.86 94.2373 125.609 95.56L125.865 93.96H127.593V109.736C127.593 111.741 126.996 113.299 125.801 114.408C124.606 115.539 122.814 116.104 120.425 116.104ZM120.457 106.888C121.268 106.888 122.1 106.739 122.953 106.44C123.806 106.141 124.585 105.725 125.289 105.192V97.448C124.585 96.9147 123.806 96.4987 122.953 96.2C122.1 95.9013 121.268 95.752 120.457 95.752C119.028 95.752 117.897 96.264 117.065 97.288C116.254 98.312 115.849 99.656 115.849 101.32C115.849 102.984 116.254 104.328 117.065 105.352C117.897 106.376 119.028 106.888 120.457 106.888ZM139.436 109.384C136.812 109.384 134.465 108.765 132.396 107.528L133.324 105.576C134.241 106.109 135.222 106.515 136.268 106.792C137.313 107.069 138.401 107.208 139.532 107.208C142.412 107.208 143.852 106.376 143.852 104.712C143.852 104.093 143.66 103.645 143.276 103.368C142.892 103.069 142.22 102.856 141.26 102.728L137.612 102.216C136.054 101.981 134.913 101.565 134.188 100.968C133.484 100.349 133.132 99.4427 133.132 98.248C133.132 96.7547 133.676 95.6027 134.764 94.792C135.873 93.9813 137.42 93.576 139.404 93.576C141.644 93.576 143.756 94.088 145.74 95.112L144.908 97.096C143.222 96.2 141.366 95.752 139.34 95.752C136.758 95.752 135.468 96.5307 135.468 98.088C135.468 98.6853 135.66 99.1227 136.044 99.4C136.428 99.6773 137.1 99.88 138.06 100.008L141.708 100.52C143.286 100.733 144.428 101.149 145.132 101.768C145.836 102.387 146.188 103.315 146.188 104.552C146.188 106.109 145.601 107.304 144.428 108.136C143.276 108.968 141.612 109.384 139.436 109.384Z" fill="#00356B"/>
</svg>
