<svg width="130" height="118" viewBox="0 0 130 118" fill="none" xmlns="http://www.w3.org/2000/svg">
<path d="M35 10C35 4.47715 39.4772 0 45 0H85C90.5228 0 95 4.47715 95 10V70C95 75.5228 90.5228 80 85 80H45C39.4772 80 35 75.5228 35 70V10ZM57.5 10C56.1193 10 55 11.1193 55 12.5C55 13.8807 56.1193 15 57.5 15H72.5C73.8807 15 75 13.8807 75 12.5C75 11.1193 73.8807 10 72.5 10H57.5ZM65 55C73.2843 55 80 48.2843 80 40C80 31.7157 73.2843 25 65 25C56.7157 25 50 31.7157 50 40C50 48.2843 56.7157 55 65 55ZM90 68.7765C85.7279 64.129 78.1168 60 65.0003 60C51.8832 60 44.272 64.1293 40 68.7771V70C40 72.7614 42.2386 75 45 75H85C87.7614 75 90 72.7614 90 70V68.7765Z" fill="#00356B"/>
<path d="M9.248 109.384C6.624 109.384 4.27733 108.765 2.208 107.528L3.136 105.576C4.05333 106.109 5.03467 106.515 6.08 106.792C7.12533 107.069 8.21333 107.208 9.344 107.208C12.224 107.208 13.664 106.376 13.664 104.712C13.664 104.093 13.472 103.645 13.088 103.368C12.704 103.069 12.032 102.856 11.072 102.728L7.424 102.216C5.86667 101.981 4.72533 101.565 4 100.968C3.296 100.349 2.944 99.4427 2.944 98.248C2.944 96.7547 3.488 95.6027 4.576 94.792C5.68533 93.9813 7.232 93.576 9.216 93.576C11.456 93.576 13.568 94.088 15.552 95.112L14.72 97.096C13.0347 96.2 11.1787 95.752 9.152 95.752C6.57067 95.752 5.28 96.5307 5.28 98.088C5.28 98.6853 5.472 99.1227 5.856 99.4C6.24 99.6773 6.912 99.88 7.872 100.008L11.52 100.52C13.0987 100.733 14.24 101.149 14.944 101.768C15.648 102.387 16 103.315 16 104.552C16 106.109 15.4133 107.304 14.24 108.136C13.088 108.968 11.424 109.384 9.248 109.384ZM26.6905 109V96.072H20.2905V93.96H28.9945V106.888H35.3945V109H26.6905ZM27.5225 90.312C26.9252 90.312 26.4025 90.0987 25.9545 89.672C25.5278 89.224 25.3145 88.7013 25.3145 88.104C25.3145 87.4853 25.5278 86.9627 25.9545 86.536C26.4025 86.1093 26.9252 85.896 27.5225 85.896C28.1412 85.896 28.6638 86.1093 29.0905 86.536C29.5172 86.9627 29.7305 87.4853 29.7305 88.104C29.7305 88.7013 29.5172 89.224 29.0905 89.672C28.6638 90.0987 28.1412 90.312 27.5225 90.312ZM45.925 116.104C44.8583 116.104 43.813 115.976 42.789 115.72C41.765 115.485 40.7837 115.123 39.845 114.632L40.677 112.616C41.4663 113.043 42.2877 113.363 43.141 113.576C44.0157 113.811 44.9223 113.928 45.861 113.928C47.525 113.928 48.7623 113.555 49.573 112.808C50.3837 112.061 50.789 110.941 50.789 109.448V107.304C49.9783 107.88 49.125 108.317 48.229 108.616C47.3543 108.915 46.469 109.064 45.573 109.064C44.229 109.064 43.0663 108.744 42.085 108.104C41.1037 107.443 40.3357 106.536 39.781 105.384C39.2477 104.211 38.981 102.856 38.981 101.32C38.981 99.784 39.2477 98.44 39.781 97.288C40.3357 96.1147 41.1037 95.208 42.085 94.568C43.0663 93.9067 44.229 93.576 45.573 93.576C47.5143 93.576 49.3597 94.2373 51.109 95.56L51.365 93.96H53.093V109.736C53.093 111.741 52.4957 113.299 51.301 114.408C50.1063 115.539 48.3143 116.104 45.925 116.104ZM45.957 106.888C46.7677 106.888 47.5997 106.739 48.453 106.44C49.3063 106.141 50.085 105.725 50.789 105.192V97.448C50.085 96.9147 49.3063 96.4987 48.453 96.2C47.5997 95.9013 46.7677 95.752 45.957 95.752C44.5277 95.752 43.397 96.264 42.565 97.288C41.7543 98.312 41.349 99.656 41.349 101.32C41.349 102.984 41.7543 104.328 42.565 105.352C43.397 106.376 44.5277 106.888 45.957 106.888ZM58.5355 109V93.96H60.2635L60.5195 95.56C61.3942 94.8987 62.3008 94.408 63.2395 94.088C64.1782 93.7467 65.1702 93.576 66.2155 93.576C67.9862 93.576 69.3195 94.0453 70.2155 94.984C71.1328 95.9227 71.5915 97.3413 71.5915 99.24V109H69.2875V99.592C69.2875 98.248 69.0102 97.2773 68.4555 96.68C67.9008 96.0613 67.0262 95.752 65.8315 95.752C64.9782 95.752 64.1142 95.9013 63.2395 96.2C62.3862 96.4773 61.5862 96.8933 60.8395 97.448V109H58.5355ZM77.13 101.256V99.144H89.93V101.256H77.13ZM100.845 109.384C99.0952 109.384 97.7618 108.915 96.8445 107.976C95.9272 107.016 95.4685 105.597 95.4685 103.72V93.96H97.7725V103.368C97.7725 104.712 98.0498 105.693 98.6045 106.312C99.1592 106.909 100.034 107.208 101.229 107.208C102.103 107.208 102.967 107.059 103.821 106.76C104.695 106.461 105.495 106.045 106.221 105.512V93.96H108.525V109H106.797L106.541 107.4C105.687 108.061 104.781 108.563 103.821 108.904C102.882 109.224 101.89 109.384 100.845 109.384ZM113.967 115.72V93.96H115.695L115.951 95.56C117.7 94.2373 119.546 93.576 121.487 93.576C123.514 93.576 125.114 94.2907 126.287 95.72C127.482 97.1493 128.079 99.0693 128.079 101.48C128.079 103.891 127.482 105.811 126.287 107.24C125.114 108.669 123.514 109.384 121.487 109.384C120.591 109.384 119.695 109.235 118.799 108.936C117.924 108.637 117.082 108.2 116.271 107.624V115.72H113.967ZM121.103 107.208C122.554 107.208 123.684 106.696 124.495 105.672C125.306 104.648 125.711 103.251 125.711 101.48C125.711 99.7093 125.306 98.312 124.495 97.288C123.684 96.264 122.554 95.752 121.103 95.752C120.314 95.752 119.482 95.9013 118.607 96.2C117.754 96.4987 116.975 96.9147 116.271 97.448V105.512C116.975 106.045 117.754 106.461 118.607 106.76C119.482 107.059 120.314 107.208 121.103 107.208Z" fill="#00356B"/>
</svg>
