<svg width="130" height="121" viewBox="0 0 130 121" fill="none" xmlns="http://www.w3.org/2000/svg">
<path d="M9.248 112.384C6.624 112.384 4.27733 111.765 2.208 110.528L3.136 108.576C4.05333 109.109 5.03467 109.515 6.08 109.792C7.12533 110.069 8.21333 110.208 9.344 110.208C12.224 110.208 13.664 109.376 13.664 107.712C13.664 107.093 13.472 106.645 13.088 106.368C12.704 106.069 12.032 105.856 11.072 105.728L7.424 105.216C5.86667 104.981 4.72533 104.565 4 103.968C3.296 103.349 2.944 102.443 2.944 101.248C2.944 99.7547 3.488 98.6027 4.576 97.792C5.68533 96.9813 7.232 96.576 9.216 96.576C11.456 96.576 13.568 97.088 15.552 98.112L14.72 100.096C13.0347 99.2 11.1787 98.752 9.152 98.752C6.57067 98.752 5.28 99.5307 5.28 101.088C5.28 101.685 5.472 102.123 5.856 102.4C6.24 102.677 6.912 102.88 7.872 103.008L11.52 103.52C13.0987 103.733 14.24 104.149 14.944 104.768C15.648 105.387 16 106.315 16 107.552C16 109.109 15.4133 110.304 14.24 111.136C13.088 111.968 11.424 112.384 9.248 112.384ZM26.6905 112V99.072H20.2905V96.96H28.9945V109.888H35.3945V112H26.6905ZM27.5225 93.312C26.9252 93.312 26.4025 93.0987 25.9545 92.672C25.5278 92.224 25.3145 91.7013 25.3145 91.104C25.3145 90.4853 25.5278 89.9627 25.9545 89.536C26.4025 89.1093 26.9252 88.896 27.5225 88.896C28.1412 88.896 28.6638 89.1093 29.0905 89.536C29.5172 89.9627 29.7305 90.4853 29.7305 91.104C29.7305 91.7013 29.5172 92.224 29.0905 92.672C28.6638 93.0987 28.1412 93.312 27.5225 93.312ZM45.925 119.104C44.8583 119.104 43.813 118.976 42.789 118.72C41.765 118.485 40.7837 118.123 39.845 117.632L40.677 115.616C41.4663 116.043 42.2877 116.363 43.141 116.576C44.0157 116.811 44.9223 116.928 45.861 116.928C47.525 116.928 48.7623 116.555 49.573 115.808C50.3837 115.061 50.789 113.941 50.789 112.448V110.304C49.9783 110.88 49.125 111.317 48.229 111.616C47.3543 111.915 46.469 112.064 45.573 112.064C44.229 112.064 43.0663 111.744 42.085 111.104C41.1037 110.443 40.3357 109.536 39.781 108.384C39.2477 107.211 38.981 105.856 38.981 104.32C38.981 102.784 39.2477 101.44 39.781 100.288C40.3357 99.1147 41.1037 98.208 42.085 97.568C43.0663 96.9067 44.229 96.576 45.573 96.576C47.5143 96.576 49.3597 97.2373 51.109 98.56L51.365 96.96H53.093V112.736C53.093 114.741 52.4957 116.299 51.301 117.408C50.1063 118.539 48.3143 119.104 45.925 119.104ZM45.957 109.888C46.7677 109.888 47.5997 109.739 48.453 109.44C49.3063 109.141 50.085 108.725 50.789 108.192V100.448C50.085 99.9147 49.3063 99.4987 48.453 99.2C47.5997 98.9013 46.7677 98.752 45.957 98.752C44.5277 98.752 43.397 99.264 42.565 100.288C41.7543 101.312 41.349 102.656 41.349 104.32C41.349 105.984 41.7543 107.328 42.565 108.352C43.397 109.376 44.5277 109.888 45.957 109.888ZM58.5355 112V96.96H60.2635L60.5195 98.56C61.3942 97.8987 62.3008 97.408 63.2395 97.088C64.1782 96.7467 65.1702 96.576 66.2155 96.576C67.9862 96.576 69.3195 97.0453 70.2155 97.984C71.1328 98.9227 71.5915 100.341 71.5915 102.24V112H69.2875V102.592C69.2875 101.248 69.0102 100.277 68.4555 99.68C67.9008 99.0613 67.0262 98.752 65.8315 98.752C64.9782 98.752 64.1142 98.9013 63.2395 99.2C62.3862 99.4773 61.5862 99.8933 60.8395 100.448V112H58.5355ZM77.13 104.256V102.144H89.93V104.256H77.13ZM100.845 112.384C99.0952 112.384 97.7618 111.915 96.8445 110.976C95.9272 110.016 95.4685 108.597 95.4685 106.72V96.96H97.7725V106.368C97.7725 107.712 98.0498 108.693 98.6045 109.312C99.1592 109.909 100.034 110.208 101.229 110.208C102.103 110.208 102.967 110.059 103.821 109.76C104.695 109.461 105.495 109.045 106.221 108.512V96.96H108.525V112H106.797L106.541 110.4C105.687 111.061 104.781 111.563 103.821 111.904C102.882 112.224 101.89 112.384 100.845 112.384ZM113.967 118.72V96.96H115.695L115.951 98.56C117.7 97.2373 119.546 96.576 121.487 96.576C123.514 96.576 125.114 97.2907 126.287 98.72C127.482 100.149 128.079 102.069 128.079 104.48C128.079 106.891 127.482 108.811 126.287 110.24C125.114 111.669 123.514 112.384 121.487 112.384C120.591 112.384 119.695 112.235 118.799 111.936C117.924 111.637 117.082 111.2 116.271 110.624V118.72H113.967ZM121.103 110.208C122.554 110.208 123.684 109.696 124.495 108.672C125.306 107.648 125.711 106.251 125.711 104.48C125.711 102.709 125.306 101.312 124.495 100.288C123.684 99.264 122.554 98.752 121.103 98.752C120.314 98.752 119.482 98.9013 118.607 99.2C117.754 99.4987 116.975 99.9147 116.271 100.448V108.512C116.975 109.045 117.754 109.461 118.607 109.76C119.482 110.059 120.314 110.208 121.103 110.208Z" fill="#00356B"/>
<path d="M65 50.9063C72.7665 50.9063 79.0625 44.6103 79.0625 36.8438C79.0625 29.0773 72.7665 22.7813 65 22.7813C57.2335 22.7813 50.9375 29.0773 50.9375 36.8438C50.9375 44.6103 57.2335 50.9063 65 50.9063Z" fill="#00356B"/>
<path d="M31.25 11.25C25.0368 11.25 20 16.2868 20 22.5V67.5C20 73.7132 25.0368 78.75 31.25 78.75H98.75C104.963 78.75 110 73.7132 110 67.5V22.5C110 16.2868 104.963 11.25 98.75 11.25H31.25ZM91.9904 73.125C89.4394 65.979 82.0842 56.25 65 56.25C47.9158 56.25 40.5606 65.979 38.0096 73.125H31.25C28.1434 73.125 25.625 70.6066 25.625 67.5V22.5C25.625 19.3934 28.1434 16.875 31.25 16.875H98.75C101.857 16.875 104.375 19.3934 104.375 22.5V67.5C104.375 70.6066 101.857 73.125 98.75 73.125H91.9904Z" fill="#00356B"/>
</svg>
