<svg width="132" height="124" viewBox="0 0 132 124" fill="none" xmlns="http://www.w3.org/2000/svg">
<path d="M2.592 115.72V93.96H4.32L4.576 95.56C6.32533 94.2373 8.17067 93.576 10.112 93.576C12.1387 93.576 13.7387 94.2907 14.912 95.72C16.1067 97.1493 16.704 99.0693 16.704 101.48C16.704 103.891 16.1067 105.811 14.912 107.24C13.7387 108.669 12.1387 109.384 10.112 109.384C9.216 109.384 8.32 109.235 7.424 108.936C6.54933 108.637 5.70667 108.2 4.896 107.624V115.72H2.592ZM9.728 107.208C11.1787 107.208 12.3093 106.696 13.12 105.672C13.9307 104.648 14.336 103.251 14.336 101.48C14.336 99.7093 13.9307 98.312 13.12 97.288C12.3093 96.264 11.1787 95.752 9.728 95.752C8.93867 95.752 8.10667 95.9013 7.232 96.2C6.37867 96.4987 5.6 96.9147 4.896 97.448V105.512C5.6 106.045 6.37867 106.461 7.232 106.76C8.10667 107.059 8.93867 107.208 9.728 107.208ZM22.5305 109V93.96H24.3865L24.7065 96.584C25.5812 95.5813 26.5518 94.8347 27.6185 94.344C28.7065 93.832 29.8798 93.576 31.1385 93.576C32.5465 93.576 33.6772 93.8747 34.5305 94.472L33.6665 96.552C33.2612 96.2747 32.8345 96.0827 32.3865 95.976C31.9598 95.848 31.4798 95.784 30.9465 95.784C28.5358 95.784 26.4985 96.9253 24.8345 99.208V109H22.5305ZM46.405 109.384C44.8903 109.384 43.557 109.053 42.405 108.392C41.253 107.731 40.357 106.813 39.717 105.64C39.0983 104.445 38.789 103.059 38.789 101.48C38.789 99.9013 39.0983 98.5253 39.717 97.352C40.357 96.1573 41.253 95.2293 42.405 94.568C43.557 93.9067 44.8903 93.576 46.405 93.576C47.941 93.576 49.2743 93.9067 50.405 94.568C51.557 95.2293 52.4423 96.1573 53.061 97.352C53.701 98.5253 54.021 99.9013 54.021 101.48C54.021 103.059 53.701 104.445 53.061 105.64C52.4423 106.813 51.557 107.731 50.405 108.392C49.2743 109.053 47.941 109.384 46.405 109.384ZM46.405 107.208C48.0477 107.208 49.3277 106.696 50.245 105.672C51.1837 104.648 51.653 103.251 51.653 101.48C51.653 99.7093 51.1837 98.312 50.245 97.288C49.3277 96.264 48.0477 95.752 46.405 95.752C44.7837 95.752 43.5037 96.264 42.565 97.288C41.6263 98.312 41.157 99.7093 41.157 101.48C41.157 103.251 41.6263 104.648 42.565 105.672C43.5037 106.696 44.7837 107.208 46.405 107.208ZM63.1115 109V96.072H58.1515V93.96H63.1115V91.56C63.1115 89.6827 63.6022 88.2747 64.5835 87.336C65.5862 86.376 67.0582 85.896 68.9995 85.896C70.6208 85.896 72.1035 86.2373 73.4475 86.92L72.8395 88.968C71.6448 88.3707 70.4288 88.072 69.1915 88.072C67.9328 88.072 66.9835 88.392 66.3435 89.032C65.7248 89.672 65.4155 90.632 65.4155 91.912V93.96H71.8155V96.072H65.4155V109H63.1115ZM82.378 109V96.072H75.978V93.96H84.682V106.888H91.082V109H82.378ZM83.21 90.312C82.6127 90.312 82.09 90.0987 81.642 89.672C81.2153 89.224 81.002 88.7013 81.002 88.104C81.002 87.4853 81.2153 86.9627 81.642 86.536C82.09 86.1093 82.6127 85.896 83.21 85.896C83.8287 85.896 84.3513 86.1093 84.778 86.536C85.2047 86.9627 85.418 87.4853 85.418 88.104C85.418 88.7013 85.2047 89.224 84.778 89.672C84.3513 90.0987 83.8287 90.312 83.21 90.312ZM105.805 109.384C102.071 109.384 100.205 107.496 100.205 103.72V88.392H93.8045V86.28H102.509V103.368C102.509 104.712 102.786 105.693 103.341 106.312C103.895 106.909 104.77 107.208 105.965 107.208C107.309 107.208 108.567 106.888 109.741 106.248L110.381 108.296C108.994 109.021 107.469 109.384 105.805 109.384ZM121.519 109.384C118.938 109.384 116.9 108.68 115.407 107.272C113.935 105.864 113.199 103.933 113.199 101.48C113.199 99.8587 113.519 98.4613 114.159 97.288C114.799 96.1147 115.695 95.208 116.847 94.568C117.999 93.9067 119.343 93.576 120.879 93.576C122.372 93.576 123.663 93.8853 124.751 94.504C125.839 95.1013 126.671 95.9547 127.247 97.064C127.844 98.152 128.143 99.4533 128.143 100.968C128.143 101.181 128.143 101.395 128.143 101.608C128.143 101.821 128.122 102.045 128.079 102.28H115.599C115.748 103.859 116.335 105.075 117.359 105.928C118.383 106.781 119.791 107.208 121.583 107.208C123.375 107.208 125.071 106.685 126.671 105.64L127.663 107.528C126.703 108.168 125.722 108.637 124.719 108.936C123.716 109.235 122.65 109.384 121.519 109.384ZM115.663 100.232H125.807C125.658 98.824 125.156 97.7253 124.303 96.936C123.45 96.1467 122.298 95.752 120.847 95.752C119.418 95.752 118.244 96.1467 117.327 96.936C116.431 97.7253 115.876 98.824 115.663 100.232Z" fill="#00356B"/>
<path d="M58 40C66.2843 40 73 33.2843 73 25C73 16.7157 66.2843 10 58 10C49.7157 10 43 16.7157 43 25C43 33.2843 49.7157 40 58 40Z" fill="#00356B"/>
<path d="M33 70C33 70 28 70 28 65C28 60 33 45 58 45C83 45 88 60 88 65C88 70 83 70 83 70H33Z" fill="#00356B"/>
<path d="M83 17.5C83 16.1193 84.1193 15 85.5 15H105.5C106.881 15 108 16.1193 108 17.5C108 18.8807 106.881 20 105.5 20H85.5C84.1193 20 83 18.8807 83 17.5Z" fill="#00356B"/>
<path d="M85.5 30C84.1193 30 83 31.1193 83 32.5C83 33.8807 84.1193 35 85.5 35H105.5C106.881 35 108 33.8807 108 32.5C108 31.1193 106.881 30 105.5 30H85.5Z" fill="#00356B"/>
<path d="M95.5 45C94.1193 45 93 46.1193 93 47.5C93 48.8807 94.1193 50 95.5 50H105.5C106.881 50 108 48.8807 108 47.5C108 46.1193 106.881 45 105.5 45H95.5Z" fill="#00356B"/>
<path d="M95.5 60C94.1193 60 93 61.1193 93 62.5C93 63.8807 94.1193 65 95.5 65H105.5C106.881 65 108 63.8807 108 62.5C108 61.1193 106.881 60 105.5 60H95.5Z" fill="#00356B"/>
</svg>
